{
	"asset":{
		"generator":"Khronos glTF Blender I/O v4.3.47",
		"version":"2.0"
	},
	"scene":0,
	"scenes":[
		{
			"name":"Scene",
			"nodes":[
				1
			]
		}
	],
	"nodes":[
		{
			"mesh":0,
			"name":"Axe Head"
		},
		{
			"children":[
				0
			],
			"mesh":1,
			"name":"Axe Handle",
			"rotation":[
				0.1251530945301056,
				-0.9907820224761963,
				0.023840894922614098,
				0.04603584110736847
			],
			"translation":[
				-0.5267746448516846,
				0.3250036835670471,
				0.45075052976608276
			]
		}
	],
	"animations":[
		{
			"channels":[
				{
					"sampler":0,
					"target":{
						"node":1,
						"path":"translation"
					}
				},
				{
					"sampler":1,
					"target":{
						"node":1,
						"path":"rotation"
					}
				}
			],
			"name":"Axe Attack",
			"samplers":[
				{
					"input":8,
					"interpolation":"LINEAR",
					"output":9
				},
				{
					"input":8,
					"interpolation":"LINEAR",
					"output":10
				}
			]
		}
	],
	"materials":[
		{
			"doubleSided":true,
			"name":"Iron",
			"pbrMetallicRoughness":{
				"baseColorTexture":{
					"index":0
				},
				"roughnessFactor":0.32474225759506226
			}
		},
		{
			"doubleSided":true,
			"name":"wood",
			"pbrMetallicRoughness":{
				"baseColorTexture":{
					"index":1
				},
				"metallicFactor":0
			}
		}
	],
	"meshes":[
		{
			"name":"Cylinder.001",
			"primitives":[
				{
					"attributes":{
						"POSITION":0,
						"NORMAL":1,
						"TEXCOORD_0":2
					},
					"indices":3,
					"material":0
				}
			]
		},
		{
			"name":"Cylinder",
			"primitives":[
				{
					"attributes":{
						"POSITION":4,
						"NORMAL":5,
						"TEXCOORD_0":6
					},
					"indices":7,
					"material":1
				}
			]
		}
	],
	"textures":[
		{
			"sampler":0,
			"source":0
		},
		{
			"sampler":0,
			"source":1
		}
	],
	"images":[
		{
			"mimeType":"image/png",
			"name":"Metal_17-512x512",
			"uri":"Metal_17-512x512.png"
		},
		{
			"mimeType":"image/png",
			"name":"Wood_11-512x512",
			"uri":"Wood_11-512x512.png"
		}
	],
	"accessors":[
		{
			"bufferView":0,
			"componentType":5126,
			"count":136,
			"max":[
				0.05648033320903778,
				0.9109006524085999,
				0.16158929467201233
			],
			"min":[
				-0.05648034065961838,
				0.4780600368976593,
				-0.3665744960308075
			],
			"type":"VEC3"
		},
		{
			"bufferView":1,
			"componentType":5126,
			"count":136,
			"type":"VEC3"
		},
		{
			"bufferView":2,
			"componentType":5126,
			"count":136,
			"type":"VEC2"
		},
		{
			"bufferView":3,
			"componentType":5123,
			"count":204,
			"type":"SCALAR"
		},
		{
			"bufferView":4,
			"componentType":5126,
			"count":190,
			"max":[
				0.0621771439909935,
				0.8834810256958008,
				0.12485270202159882
			],
			"min":[
				-0.0621771439909935,
				-0.8808366656303406,
				-0.05844895541667938
			],
			"type":"VEC3"
		},
		{
			"bufferView":5,
			"componentType":5126,
			"count":190,
			"type":"VEC3"
		},
		{
			"bufferView":6,
			"componentType":5126,
			"count":190,
			"type":"VEC2"
		},
		{
			"bufferView":7,
			"componentType":5123,
			"count":288,
			"type":"SCALAR"
		},
		{
			"bufferView":8,
			"componentType":5126,
			"count":26,
			"max":[
				1.0416666666666667
			],
			"min":[
				0
			],
			"type":"SCALAR"
		},
		{
			"bufferView":9,
			"componentType":5126,
			"count":26,
			"type":"VEC3"
		},
		{
			"bufferView":10,
			"componentType":5126,
			"count":26,
			"type":"VEC4"
		}
	],
	"bufferViews":[
		{
			"buffer":0,
			"byteLength":1632,
			"byteOffset":0,
			"target":34962
		},
		{
			"buffer":0,
			"byteLength":1632,
			"byteOffset":1632,
			"target":34962
		},
		{
			"buffer":0,
			"byteLength":1088,
			"byteOffset":3264,
			"target":34962
		},
		{
			"buffer":0,
			"byteLength":408,
			"byteOffset":4352,
			"target":34963
		},
		{
			"buffer":0,
			"byteLength":2280,
			"byteOffset":4760,
			"target":34962
		},
		{
			"buffer":0,
			"byteLength":2280,
			"byteOffset":7040,
			"target":34962
		},
		{
			"buffer":0,
			"byteLength":1520,
			"byteOffset":9320,
			"target":34962
		},
		{
			"buffer":0,
			"byteLength":576,
			"byteOffset":10840,
			"target":34963
		},
		{
			"buffer":0,
			"byteLength":104,
			"byteOffset":11416
		},
		{
			"buffer":0,
			"byteLength":312,
			"byteOffset":11520
		},
		{
			"buffer":0,
			"byteLength":416,
			"byteOffset":11832
		}
	],
	"samplers":[
		{
			"magFilter":9729,
			"minFilter":9987
		}
	],
	"buffers":[
		{
			"byteLength":12248,
			"uri":"Axe_FPS.bin"
		}
	]
}
