{
	"asset":{
		"generator":"Khronos glTF Blender I/O v4.1.63",
		"version":"2.0"
	},
	"scene":0,
	"scenes":[
		{
			"name":"Scene",
			"nodes":[
				0,
				1,
				2,
				3
			]
		}
	],
	"nodes":[
		{
			"mesh":0,
			"name":"wall_segment"
		},
		{
			"mesh":1,
			"name":"tower_segment"
		},
		{
			"mesh":2,
			"name":"gate_segment"
		},
		{
			"mesh":3,
			"name":"gate_door"
		}
	],
	"materials":[
		{
			"doubleSided":true,
			"name":"material_brick",
			"pbrMetallicRoughness":{
				"baseColorTexture":{
					"index":0
				},
				"metallicFactor":0,
				"roughnessFactor":0.5
			}
		},
		{
			"doubleSided":true,
			"name":"materials_door",
			"pbrMetallicRoughness":{
				"baseColorTexture":{
					"index":1
				},
				"metallicFactor":0,
				"roughnessFactor":0.5
			}
		}
	],
	"meshes":[
		{
			"name":"Cube.003",
			"primitives":[
				{
					"attributes":{
						"POSITION":0,
						"NORMAL":1,
						"TEXCOORD_0":2
					},
					"indices":3,
					"material":0
				}
			]
		},
		{
			"name":"Cylinder.001",
			"primitives":[
				{
					"attributes":{
						"POSITION":4,
						"NORMAL":5,
						"TEXCOORD_0":6
					},
					"indices":7,
					"material":0
				}
			]
		},
		{
			"name":"Cube.001",
			"primitives":[
				{
					"attributes":{
						"POSITION":8,
						"NORMAL":9,
						"TEXCOORD_0":10
					},
					"indices":11,
					"material":0
				}
			]
		},
		{
			"name":"Cube",
			"primitives":[
				{
					"attributes":{
						"POSITION":12,
						"NORMAL":13,
						"TEXCOORD_0":14
					},
					"indices":15,
					"material":1
				},
				{
					"attributes":{
						"POSITION":16,
						"NORMAL":17,
						"TEXCOORD_0":18
					},
					"indices":19,
					"material":0
				}
			]
		}
	],
	"textures":[
		{
			"sampler":0,
			"source":0
		},
		{
			"sampler":0,
			"source":1
		}
	],
	"images":[
		{
			"mimeType":"image/png",
			"name":"stone_wall",
			"uri":"stone_wall.png"
		},
		{
			"mimeType":"image/png",
			"name":"stone_wall_128",
			"uri":"stone_wall_128.png"
		}
	],
	"accessors":[
		{
			"bufferView":0,
			"componentType":5126,
			"count":578,
			"max":[
				8,
				6.400000095367432,
				2
			],
			"min":[
				-8,
				-9,
				-2
			],
			"type":"VEC3"
		},
		{
			"bufferView":1,
			"componentType":5126,
			"count":578,
			"type":"VEC3"
		},
		{
			"bufferView":2,
			"componentType":5126,
			"count":578,
			"type":"VEC2"
		},
		{
			"bufferView":3,
			"componentType":5123,
			"count":1254,
			"type":"SCALAR"
		},
		{
			"bufferView":4,
			"componentType":5126,
			"count":2528,
			"max":[
				3.9993062019348145,
				21.5,
				3.9993059635162354
			],
			"min":[
				-3.9993057250976562,
				0,
				-3.9993059635162354
			],
			"type":"VEC3"
		},
		{
			"bufferView":5,
			"componentType":5126,
			"count":2528,
			"type":"VEC3"
		},
		{
			"bufferView":6,
			"componentType":5126,
			"count":2528,
			"type":"VEC2"
		},
		{
			"bufferView":7,
			"componentType":5123,
			"count":5364,
			"type":"SCALAR"
		},
		{
			"bufferView":8,
			"componentType":5126,
			"count":626,
			"max":[
				8,
				6.400000095367432,
				2
			],
			"min":[
				-8,
				-9,
				-2
			],
			"type":"VEC3"
		},
		{
			"bufferView":9,
			"componentType":5126,
			"count":626,
			"type":"VEC3"
		},
		{
			"bufferView":10,
			"componentType":5126,
			"count":626,
			"type":"VEC2"
		},
		{
			"bufferView":11,
			"componentType":5123,
			"count":1404,
			"type":"SCALAR"
		},
		{
			"bufferView":12,
			"componentType":5126,
			"count":8,
			"max":[
				0.8533333539962769,
				2.549999952316284,
				3.0319435596466064
			],
			"min":[
				-0.8533333539962769,
				0,
				3.0319435596466064
			],
			"type":"VEC3"
		},
		{
			"bufferView":13,
			"componentType":5126,
			"count":8,
			"type":"VEC3"
		},
		{
			"bufferView":14,
			"componentType":5126,
			"count":8,
			"type":"VEC2"
		},
		{
			"bufferView":15,
			"componentType":5123,
			"count":18,
			"type":"SCALAR"
		},
		{
			"bufferView":16,
			"componentType":5126,
			"count":114,
			"max":[
				1.28000009059906,
				3.700000047683716,
				3.3187496662139893
			],
			"min":[
				-1.28000009059906,
				0,
				2.1895999908447266
			],
			"type":"VEC3"
		},
		{
			"bufferView":17,
			"componentType":5126,
			"count":114,
			"type":"VEC3"
		},
		{
			"bufferView":18,
			"componentType":5126,
			"count":114,
			"type":"VEC2"
		},
		{
			"bufferView":19,
			"componentType":5123,
			"count":312,
			"type":"SCALAR"
		}
	],
	"bufferViews":[
		{
			"buffer":0,
			"byteLength":6936,
			"byteOffset":0,
			"target":34962
		},
		{
			"buffer":0,
			"byteLength":6936,
			"byteOffset":6936,
			"target":34962
		},
		{
			"buffer":0,
			"byteLength":4624,
			"byteOffset":13872,
			"target":34962
		},
		{
			"buffer":0,
			"byteLength":2508,
			"byteOffset":18496,
			"target":34963
		},
		{
			"buffer":0,
			"byteLength":30336,
			"byteOffset":21004,
			"target":34962
		},
		{
			"buffer":0,
			"byteLength":30336,
			"byteOffset":51340,
			"target":34962
		},
		{
			"buffer":0,
			"byteLength":20224,
			"byteOffset":81676,
			"target":34962
		},
		{
			"buffer":0,
			"byteLength":10728,
			"byteOffset":101900,
			"target":34963
		},
		{
			"buffer":0,
			"byteLength":7512,
			"byteOffset":112628,
			"target":34962
		},
		{
			"buffer":0,
			"byteLength":7512,
			"byteOffset":120140,
			"target":34962
		},
		{
			"buffer":0,
			"byteLength":5008,
			"byteOffset":127652,
			"target":34962
		},
		{
			"buffer":0,
			"byteLength":2808,
			"byteOffset":132660,
			"target":34963
		},
		{
			"buffer":0,
			"byteLength":96,
			"byteOffset":135468,
			"target":34962
		},
		{
			"buffer":0,
			"byteLength":96,
			"byteOffset":135564,
			"target":34962
		},
		{
			"buffer":0,
			"byteLength":64,
			"byteOffset":135660,
			"target":34962
		},
		{
			"buffer":0,
			"byteLength":36,
			"byteOffset":135724,
			"target":34963
		},
		{
			"buffer":0,
			"byteLength":1368,
			"byteOffset":135760,
			"target":34962
		},
		{
			"buffer":0,
			"byteLength":1368,
			"byteOffset":137128,
			"target":34962
		},
		{
			"buffer":0,
			"byteLength":912,
			"byteOffset":138496,
			"target":34962
		},
		{
			"buffer":0,
			"byteLength":624,
			"byteOffset":139408,
			"target":34963
		}
	],
	"samplers":[
		{
			"magFilter":9729,
			"minFilter":9987
		}
	],
	"buffers":[
		{
			"byteLength":140032,
			"uri":"CastleKit.bin"
		}
	]
}
