{
	"asset":{
		"generator":"Khronos glTF Blender I/O v4.1.63",
		"version":"2.0"
	},
	"scene":0,
	"scenes":[
		{
			"name":"Scene",
			"nodes":[
				3
			]
		}
	],
	"nodes":[
		{
			"mesh":0,
			"name":"Cube.002"
		},
		{
			"mesh":1,
			"name":"Cube.003"
		},
		{
			"mesh":2,
			"name":"Cube.004"
		},
		{
			"children":[
				0,
				1,
				2
			],
			"mesh":3,
			"name":"Cube"
		}
	],
	"materials":[
		{
			"doubleSided":true,
			"name":"material_sign",
			"pbrMetallicRoughness":{
				"baseColorTexture":{
					"index":0
				},
				"metallicFactor":0,
				"roughnessFactor":0.5
			}
		}
	],
	"meshes":[
		{
			"name":"Cube.003",
			"primitives":[
				{
					"attributes":{
						"POSITION":0,
						"NORMAL":1,
						"TEXCOORD_0":2
					},
					"indices":3,
					"material":0
				}
			]
		},
		{
			"name":"Cube.004",
			"primitives":[
				{
					"attributes":{
						"POSITION":4,
						"NORMAL":5,
						"TEXCOORD_0":6
					},
					"indices":7,
					"material":0
				}
			]
		},
		{
			"name":"Cube.005",
			"primitives":[
				{
					"attributes":{
						"POSITION":8,
						"NORMAL":9,
						"TEXCOORD_0":10
					},
					"indices":11,
					"material":0
				}
			]
		},
		{
			"name":"Cube.001",
			"primitives":[
				{
					"attributes":{
						"POSITION":12,
						"NORMAL":13,
						"TEXCOORD_0":14
					},
					"indices":15,
					"material":0
				}
			]
		}
	],
	"textures":[
		{
			"sampler":0,
			"source":0
		}
	],
	"images":[
		{
			"mimeType":"image/jpeg",
			"name":"texture_wood",
			"uri":"texture_wood.jpg"
		}
	],
	"accessors":[
		{
			"bufferView":0,
			"componentType":5126,
			"count":38,
			"max":[
				1.5463863611221313,
				4.372045516967773,
				0.18012413382530212
			],
			"min":[
				-0.30027270317077637,
				3.9088082313537598,
				0.0843256413936615
			],
			"type":"VEC3"
		},
		{
			"bufferView":1,
			"componentType":5126,
			"count":38,
			"type":"VEC3"
		},
		{
			"bufferView":2,
			"componentType":5126,
			"count":38,
			"type":"VEC2"
		},
		{
			"bufferView":3,
			"componentType":5123,
			"count":60,
			"type":"SCALAR"
		},
		{
			"bufferView":4,
			"componentType":5126,
			"count":38,
			"max":[
				1.6364474296569824,
				5.043666362762451,
				0.17286483943462372
			],
			"min":[
				-0.2148692011833191,
				4.514293193817139,
				0.08736099302768707
			],
			"type":"VEC3"
		},
		{
			"bufferView":5,
			"componentType":5126,
			"count":38,
			"type":"VEC3"
		},
		{
			"bufferView":6,
			"componentType":5126,
			"count":38,
			"type":"VEC2"
		},
		{
			"bufferView":7,
			"componentType":5123,
			"count":60,
			"type":"SCALAR"
		},
		{
			"bufferView":8,
			"componentType":5126,
			"count":38,
			"max":[
				1.577601671218872,
				3.744642972946167,
				0.20910745859146118
			],
			"min":[
				-0.25896507501602173,
				3.2247440814971924,
				0.09884987771511078
			],
			"type":"VEC3"
		},
		{
			"bufferView":9,
			"componentType":5126,
			"count":38,
			"type":"VEC3"
		},
		{
			"bufferView":10,
			"componentType":5126,
			"count":38,
			"type":"VEC2"
		},
		{
			"bufferView":11,
			"componentType":5123,
			"count":60,
			"type":"SCALAR"
		},
		{
			"bufferView":12,
			"componentType":5126,
			"count":24,
			"max":[
				0.14527980983257294,
				5.1699113845825195,
				0.10513991862535477
			],
			"min":[
				-0.09513992071151733,
				-0.01087188720703125,
				-0.12279163300991058
			],
			"type":"VEC3"
		},
		{
			"bufferView":13,
			"componentType":5126,
			"count":24,
			"type":"VEC3"
		},
		{
			"bufferView":14,
			"componentType":5126,
			"count":24,
			"type":"VEC2"
		},
		{
			"bufferView":15,
			"componentType":5123,
			"count":36,
			"type":"SCALAR"
		}
	],
	"bufferViews":[
		{
			"buffer":0,
			"byteLength":456,
			"byteOffset":0,
			"target":34962
		},
		{
			"buffer":0,
			"byteLength":456,
			"byteOffset":456,
			"target":34962
		},
		{
			"buffer":0,
			"byteLength":304,
			"byteOffset":912,
			"target":34962
		},
		{
			"buffer":0,
			"byteLength":120,
			"byteOffset":1216,
			"target":34963
		},
		{
			"buffer":0,
			"byteLength":456,
			"byteOffset":1336,
			"target":34962
		},
		{
			"buffer":0,
			"byteLength":456,
			"byteOffset":1792,
			"target":34962
		},
		{
			"buffer":0,
			"byteLength":304,
			"byteOffset":2248,
			"target":34962
		},
		{
			"buffer":0,
			"byteLength":120,
			"byteOffset":2552,
			"target":34963
		},
		{
			"buffer":0,
			"byteLength":456,
			"byteOffset":2672,
			"target":34962
		},
		{
			"buffer":0,
			"byteLength":456,
			"byteOffset":3128,
			"target":34962
		},
		{
			"buffer":0,
			"byteLength":304,
			"byteOffset":3584,
			"target":34962
		},
		{
			"buffer":0,
			"byteLength":120,
			"byteOffset":3888,
			"target":34963
		},
		{
			"buffer":0,
			"byteLength":288,
			"byteOffset":4008,
			"target":34962
		},
		{
			"buffer":0,
			"byteLength":288,
			"byteOffset":4296,
			"target":34962
		},
		{
			"buffer":0,
			"byteLength":192,
			"byteOffset":4584,
			"target":34962
		},
		{
			"buffer":0,
			"byteLength":72,
			"byteOffset":4776,
			"target":34963
		}
	],
	"samplers":[
		{
			"magFilter":9729,
			"minFilter":9987
		}
	],
	"buffers":[
		{
			"byteLength":4848,
			"uri":"Sign.bin"
		}
	]
}
